ModelForces
version=1
nRows=4
nColumns=155
inDegrees=no

This file contains the forces exerted on a model during a simulation.

A force is a generalized force, meaning that it can be either a force (N) or a torque (Nm).

Units are S.I. units (second, meters, Newtons, ...)
Angles are in degrees.

endheader
time	glut_med1_r	glut_med2_r	glut_med3_r	glut_min1_r	glut_min2_r	glut_min3_r	semimem_r	semiten_r	bifemlh_r	bifemsh_r	sar_r	add_long_r	add_brev_r	add_mag1_r	add_mag2_r	add_mag3_r	tfl_r	pect_r	grac_r	glut_max1_r	glut_max2_r	glut_max3_r	iliacus_r	psoas_r	quad_fem_r	gem_r	peri_r	rect_fem_r	vas_med_r	vas_int_r	vas_lat_r	med_gas_r	lat_gas_r	soleus_r	tib_post_r	flex_dig_r	flex_hal_r	tib_ant_r	per_brev_r	per_long_r	per_tert_r	ext_dig_r	ext_hal_r	glut_med1_l	glut_med2_l	glut_med3_l	glut_min1_l	glut_min2_l	glut_min3_l	semimem_l	semiten_l	bifemlh_l	bifemsh_l	sar_l	add_long_l	add_brev_l	add_mag1_l	add_mag2_l	add_mag3_l	tfl_l	pect_l	grac_l	glut_max1_l	glut_max2_l	glut_max3_l	iliacus_l	psoas_l	quad_fem_l	gem_l	peri_l	rect_fem_l	vas_med_l	vas_int_l	vas_lat_l	med_gas_l	lat_gas_l	soleus_l	tib_post_l	flex_dig_l	flex_hal_l	tib_ant_l	per_brev_l	per_long_l	per_tert_l	ext_dig_l	ext_hal_l	ercspn_r	ercspn_l	intobl_r	intobl_l	extobl_r	extobl_l	femur_lat_meniscii_r.femur_lat_r.force.X	femur_lat_meniscii_r.femur_lat_r.force.Y	femur_lat_meniscii_r.femur_lat_r.force.Z	femur_lat_meniscii_r.femur_lat_r.torque.X	femur_lat_meniscii_r.femur_lat_r.torque.Y	femur_lat_meniscii_r.femur_lat_r.torque.Z	femur_lat_meniscii_r.meniscus_lat_r.force.X	femur_lat_meniscii_r.meniscus_lat_r.force.Y	femur_lat_meniscii_r.meniscus_lat_r.force.Z	femur_lat_meniscii_r.meniscus_lat_r.torque.X	femur_lat_meniscii_r.meniscus_lat_r.torque.Y	femur_lat_meniscii_r.meniscus_lat_r.torque.Z	femur_med_meniscii_r.femur_med_r.force.X	femur_med_meniscii_r.femur_med_r.force.Y	femur_med_meniscii_r.femur_med_r.force.Z	femur_med_meniscii_r.femur_med_r.torque.X	femur_med_meniscii_r.femur_med_r.torque.Y	femur_med_meniscii_r.femur_med_r.torque.Z	femur_med_meniscii_r.meniscus_med_r.force.X	femur_med_meniscii_r.meniscus_med_r.force.Y	femur_med_meniscii_r.meniscus_med_r.force.Z	femur_med_meniscii_r.meniscus_med_r.torque.X	femur_med_meniscii_r.meniscus_med_r.torque.Y	femur_med_meniscii_r.meniscus_med_r.torque.Z	femur_med_tibia_r.tibia_upper_r.force.X	femur_med_tibia_r.tibia_upper_r.force.Y	femur_med_tibia_r.tibia_upper_r.force.Z	femur_med_tibia_r.tibia_upper_r.torque.X	femur_med_tibia_r.tibia_upper_r.torque.Y	femur_med_tibia_r.tibia_upper_r.torque.Z	femur_med_tibia_r.femur_med_r.force.X	femur_med_tibia_r.femur_med_r.force.Y	femur_med_tibia_r.femur_med_r.force.Z	femur_med_tibia_r.femur_med_r.torque.X	femur_med_tibia_r.femur_med_r.torque.Y	femur_med_tibia_r.femur_med_r.torque.Z	femur_lat_tibia_r.tibia_upper_r.force.X	femur_lat_tibia_r.tibia_upper_r.force.Y	femur_lat_tibia_r.tibia_upper_r.force.Z	femur_lat_tibia_r.tibia_upper_r.torque.X	femur_lat_tibia_r.tibia_upper_r.torque.Y	femur_lat_tibia_r.tibia_upper_r.torque.Z	femur_lat_tibia_r.femur_lat_r.force.X	femur_lat_tibia_r.femur_lat_r.force.Y	femur_lat_tibia_r.femur_lat_r.force.Z	femur_lat_tibia_r.femur_lat_r.torque.X	femur_lat_tibia_r.femur_lat_r.torque.Y	femur_lat_tibia_r.femur_lat_r.torque.Z	aACL_R	pACL_R	aPCL_R	pPCL_R	aMCL_R	mMCL_R	pMCL_R	aLCL_R	mLCL_R	pLCL_R	aPCL_L	pPCL_L	aMCL_L	aLCL_L
      0.13898905	     12.67080835	      9.42423721	     10.15058559	      4.33003857	      5.00148590	      5.51071282	     99.45664576	    167.83293430	    181.77398947	    338.67427478	    126.82559687	      9.39240483	      6.71329934	      0.00000000	      4.11685263	      7.00083302	      6.80333540	      3.65794799	     99.52867038	      6.08853420	      9.26461550	      6.97482492	     29.54071070	     20.80307311	      5.96917187	      3.98526926	      6.31938174	     34.51481710	     15.04038141	      0.00000000	      0.00000000	      0.00000000	     13.26540315	      0.00000000	      0.00000000	      0.00000000	      0.00000000	     31.33733923	      1.38414875	      1.07967156	      5.86396775	     23.08068221	      6.22539300	     12.67080835	      9.42423721	     10.15058559	      4.33003857	      5.00148590	      5.51071282	      0.00000000	      7.03508244	     13.67228657	     11.88277884	      2.46927901	      9.39240483	      6.71329934	      0.00000000	      4.11685263	      7.00083302	      5.95669963	      3.65794799	      2.55426011	      6.08853420	      9.26461550	      6.97482492	     29.54071070	     20.80307311	      5.96917187	      3.98526926	      6.31938174	     19.47683168	      0.00000000	      0.00000000	      0.00000000	     21.22645279	     10.16028491	     55.58026073	     53.93905971	      6.02488583	      5.37352289	     14.95647019	      8.07723165	     19.92141292	      3.21497161	     10.53137331	      3.33498639	     40.76786405	     40.76786405	     15.28675427	     15.28675427	     32.48625361	     32.48625361	    394.97409355	    383.02171317	     54.52624773	    -31.44038823	      9.84360688	    158.87230574	   -394.97409355	   -383.02171317	    -54.52624773	     11.80225088	    -11.83811247	     -2.60821639	    429.24071661	    564.83383597	     -0.68368858	     12.49046046	     -8.75977124	    170.42290707	   -429.24071661	   -564.83383597	      0.68368858	    -10.39685979	      7.37666620	      1.34261850	    -33.45513856	   -201.99647942	     75.88441095	     -5.01639667	      1.69086660	      2.30821462	     33.45513856	    201.99647942	    -75.88441095	     34.73068372	     -0.80626873	     13.14662296	      0.00000000	      0.00000000	      0.00000000	      0.00000000	      0.00000000	      0.00000000	      0.00000000	      0.00000000	      0.00000000	      0.00000000	      0.00000000	      0.00000000	     18.42134915	      9.86481955	    492.96999605	    343.38756199	      0.00000000	      0.00000000	      0.00000000	      1.78981002	      0.00000000	      0.00000000	      0.00000000	      0.00000000	      0.00000001	      0.00000000
      0.13951136	     12.64944618	      9.39824563	     10.12227809	      4.31856857	      4.98889489	      5.49492119	     98.58461901	    167.48806539	    181.61114235	    338.35832555	    126.68357962	      9.36621367	      6.69568023	      0.00000000	      4.10542695	      6.97999948	      6.80135173	      3.64819350	     99.34512776	      6.07165522	      9.23887843	      6.95517668	     29.49253872	     20.74812968	      5.95303303	      3.97730617	      6.32471589	     34.67490031	     23.05783273	      0.00000000	      0.00000000	      0.00000000	     11.08824570	      0.00000000	      0.00000000	      0.00000000	      0.00000000	     31.47994533	      1.36002318	      1.05873286	     18.16577596	     23.25766783	      6.26987042	     12.64944618	      9.39824563	     10.12227809	      4.31856857	      4.98889489	      5.49492119	      0.00000000	      7.01457169	     13.64224855	     11.85059000	      2.46276829	      9.36621367	      6.69568023	      0.00000000	      4.10542695	      6.97999948	      5.94398085	      3.64819350	      2.54740883	      6.07165522	      9.23887843	      6.95517668	     29.49253872	     20.74812968	      5.95303303	      3.97730617	      6.32471589	     19.41843776	      0.00000000	      0.00000000	      0.00000000	     21.24477161	     10.16370228	     55.49474481	     53.87331348	      6.01019864	      5.36036217	     14.91872708	      8.05448745	     19.88483732	      3.20651752	     10.48661028	      3.31928291	     40.65963600	     40.65963600	     15.24310266	     15.24310266	     32.44644914	     32.44644914	    391.09616428	    383.72427192	     54.46001568	    -31.42378918	      9.74775496	    157.23197943	   -391.09616428	   -383.72427192	    -54.46001568	     11.80323491	    -11.72581781	     -2.39261446	    431.75139307	    572.82402056	      0.20768645	     12.32630784	     -8.83099263	    171.33755697	   -431.75139307	   -572.82402056	     -0.20768645	    -10.56026688	      7.43719611	      1.56483961	    -34.40570755	   -204.29244371	     76.69976474	     -5.06316770	      1.72871034	      2.35153284	     34.40570755	    204.29244371	    -76.69976474	     35.09553935	     -0.82836562	     13.51838051	      0.00000000	      0.00000000	      0.00000000	      0.00000000	      0.00000000	      0.00000000	      0.00000000	      0.00000000	      0.00000000	      0.00000000	      0.00000000	      0.00000000	     18.31854321	      9.74982610	    498.37151871	    345.99728243	      0.00000000	      0.00000000	      0.00000000	      1.12729914	      0.00000000	      0.00000000	      0.00000000	      0.00000000	      0.00000001	      0.00000000
      0.14003367	     12.62765401	      9.37243783	     10.09417070	      4.30717889	      4.97639291	      5.47922721	     97.69582478	    167.13593948	    181.42818594	    338.01228287	    126.54280595	      9.34020828	      6.67818411	      0.00000000	      4.09407378	      6.95930969	      6.79843408	      3.63850666	     99.15951961	      6.05489612	      9.21332442	      6.93566830	     29.44471370	     20.69358135	      5.93700681	      3.96940055	      6.32952429	     34.84185581	     29.66095745	      0.00000000	      0.00000000	      0.00000000	      8.42976877	      0.00000000	      0.00000000	      0.00000000	      0.00000000	     31.61867598	      1.33693958	      1.03882198	     22.65053250	     23.43816788	      6.31494099	     12.62765401	      9.37243783	     10.09417070	      4.30717889	      4.97639291	      5.47922721	      0.00000000	      6.99420654	     13.61212368	     11.81862817	      2.45630310	      9.34020828	      6.67818411	      0.00000000	      4.09407378	      6.95930969	      5.93134600	      3.63850666	      2.54060569	      6.05489612	      9.21332442	      6.93566830	     29.44471370	     20.69358135	      5.93700681	      3.96940055	      6.32952429	     19.36039129	      0.00000000	      0.00000000	      0.00000000	     21.26178580	     10.16660276	     55.40833103	     53.80771172	      5.99580164	      5.34752189	     14.88101800	      8.03182890	     19.84823727	      3.19812392	     10.44208548	      3.30371468	     40.55216620	     40.55216620	     15.19976104	     15.19976104	     32.40693292	     32.40693292	    388.16400318	    383.16601343	     54.51008295	    -31.42495462	      9.67574153	    155.99832376	   -388.16400318	   -383.16601343	    -54.51008295	     11.77342680	    -11.64215870	     -2.23814795	    437.36296635	    569.82101510	      0.35365015	     12.26816836	     -8.97317680	    173.63193442	   -437.36296635	   -569.82101510	     -0.35365015	    -10.57968135	      7.56852557	      1.45097203	    -36.14792378	   -206.99645312	     77.44029992	     -5.11158932	      1.77214838	      2.37444417	     36.14792378	    206.99645312	    -77.44029992	     35.43471022	     -0.85937638	     14.21973780	      0.00000000	      0.00000000	      0.00000000	      0.00000000	      0.00000000	      0.00000000	      0.00000000	      0.00000000	      0.00000000	      0.00000000	      0.00000000	      0.00000000	     18.41934422	      9.79361327	    503.67860770	    348.48718886	      0.00000000	      0.00000000	      0.00000000	      0.62797485	      0.00000000	      0.00000000	      0.00000000	      0.00000000	      0.00000001	      0.00000000
      0.14030222	     12.61629000	      9.35923966	     10.07979651	      4.30135387	      4.96999937	      5.47119602	     97.22793185	    166.94498209	    181.32209194	    337.80369406	    126.46301212	      9.32690930	      6.66923593	      0.00000000	      4.08826472	      6.94872755	      6.79656325	      3.63355232	     99.05747532	      6.04632569	      9.20025645	      6.92569202	     29.42025832	     20.66568777	      5.92881042	      3.96535804	      6.33179689	     34.92663566	     30.29168787	      1.33391192	      0.00000000	      0.00000000	      7.18966581	      0.00000000	      0.00000000	      0.00000000	      0.00000000	     31.69251329	      1.32531992	      1.02884886	     17.98770549	     23.53170734	      6.33850375	     12.61629000	      9.35923966	     10.07979651	      4.30135387	      4.96999937	      5.47119602	      0.00000000	      6.98379198	     13.59660354	     11.80228258	      2.45299658	      9.32690930	      6.66923593	      0.00000000	      4.08826472	      6.94872755	      5.92488224	      3.63355232	      2.53712644	      6.04632569	      9.20025645	      6.92569202	     29.42025832	     20.66568777	      5.92881042	      3.96535804	      6.33179689	     19.33068133	      0.00000000	      0.00000000	      0.00000000	     21.27003553	     10.16789671	     55.36355998	     53.77404035	      5.98850801	      5.34103974	     14.86164513	      8.02021265	     19.82941131	      3.19383168	     10.41929222	      3.29576432	     40.49720318	     40.49720318	     15.17759656	     15.17759656	     32.38672686	     32.38672686	    387.49360270	    381.76946940	     54.19578959	    -31.26200024	      9.65265367	    155.72301758	   -387.49360270	   -381.76946940	    -54.19578959	     11.72127039	    -11.61128472	     -2.21195311	    438.47370406	    568.04329958	      1.77239285	     11.70067611	     -9.00548931	    174.07974098	   -438.47370406	   -568.04329958	     -1.77239285	    -10.56742248	      7.58307243	      1.44142798	    -36.72367654	   -208.81347887	     78.06022099	     -5.14979498	      1.79608434	      2.40600185	     36.72367654	    208.81347887	    -78.06022099	     35.71536139	     -0.87263010	     14.44393337	      0.00000000	      0.00000000	      0.00000000	      0.00000000	      0.00000000	      0.00000000	      0.00000000	      0.00000000	      0.00000000	      0.00000000	      0.00000000	      0.00000000	     18.37855120	      9.74549257	    506.40218074	    349.79459262	      0.00000000	      0.00000000	      0.00000000	      0.26769204	      0.00000000	      0.00000000	      0.00000000	      0.00000000	      0.00000001	      0.00000000
